<svg width="16" height="17" viewBox="0 0 16 17" fill="none" xmlns="http://www.w3.org/2000/svg">
<g clip-path="url(#clip0_281_536)">
<path d="M3 8.23997C3 7.77331 3.2 7.37331 3.53333 7.10664L11 0.573305C11.5333 0.106639 12.2667 0.173306 12.7333 0.706639C13.1333 1.23997 13.1333 1.97331 12.6 2.37331L6.06667 8.10664C6 8.17331 6 8.23997 6.06667 8.30664L12.6 14.04C13.1333 14.5066 13.2 15.24 12.7333 15.7733C12.2667 16.3066 11.5333 16.3733 11 15.9066C11 15.9066 11 15.9066 10.9333 15.84L3.53333 9.37331C3.2 9.10664 3 8.63997 3 8.23997Z" fill="white"/>
</g>
<defs>
<clipPath id="clip0_281_536">
<rect width="16" height="16" fill="white" transform="translate(0 0.23999)"/>
</clipPath>
</defs>
</svg>
