<svg width="26" height="27" viewBox="0 0 26 27" fill="none" xmlns="http://www.w3.org/2000/svg">
<path d="M10.8334 18.8319L5.41675 13.4152L6.94425 11.8769L10.8334 15.7661L19.0559 7.54358L20.5834 9.08191M13.0001 2.58191C11.5774 2.58191 10.1687 2.86212 8.85434 3.40655C7.53998 3.95097 6.34573 4.74895 5.33976 5.75492C3.30811 7.78656 2.16675 10.5421 2.16675 13.4152C2.16675 16.2884 3.30811 19.0439 5.33976 21.0756C6.34573 22.0815 7.53998 22.8795 8.85434 23.4239C10.1687 23.9684 11.5774 24.2486 13.0001 24.2486C15.8733 24.2486 18.6288 23.1072 20.6604 21.0756C22.692 19.0439 23.8334 16.2884 23.8334 13.4152C23.8334 11.9926 23.5532 10.5839 23.0088 9.26951C22.4644 7.95514 21.6664 6.76089 20.6604 5.75492C19.6544 4.74895 18.4602 3.95097 17.1458 3.40655C15.8315 2.86212 14.4227 2.58191 13.0001 2.58191Z" fill="#009F06"/>
</svg>
