<svg width="20" height="20" viewBox="0 0 20 20" fill="none" xmlns="http://www.w3.org/2000/svg">
<path d="M5.04842 1.36939L4.74138 3.92915H15.2568L14.9498 1.36939C14.9498 0.595182 14.3643 0 13.6386 0H6.33017C5.6045 0 5.04664 0.595182 5.04664 1.36939H5.04842ZM1.28353 5.32711H18.7165C19.4421 5.32711 20 5.92229 20 6.6965V14.851C20 15.6252 19.4421 16.2204 18.7165 16.2204H16.3458V20H3.65422V16.2204H1.28353C0.557861 16.2204 0 15.6252 0 14.851V6.6965C0 5.92229 0.557861 5.32711 1.28353 5.32711ZM15.0623 18.6297V9.79145H4.93685V18.6297H15.0623ZM13.5565 12.3503H6.30428C6.13648 12.3503 5.99723 12.1712 5.99723 11.9931V11.576C5.99723 11.397 6.13648 11.2485 6.30428 11.2485H13.5565C13.7243 11.2485 13.8912 11.397 13.8912 11.576V11.9931C13.8912 12.1722 13.7234 12.3503 13.5565 12.3503ZM13.5565 14.8205H6.30428C6.13648 14.8205 5.99723 14.6415 5.99723 14.4634V14.0463C5.99723 13.8673 6.13648 13.7187 6.30428 13.7187H13.5565C13.7243 13.7187 13.8912 13.8673 13.8912 14.0463V14.4634C13.8912 14.6424 13.7234 14.8205 13.5565 14.8205ZM13.5565 17.2898H6.30428C6.13648 17.2898 5.99723 17.1108 5.99723 16.9327V16.5156C5.99723 16.3365 6.13648 16.188 6.30428 16.188H13.5565C13.7243 16.188 13.8912 16.3365 13.8912 16.5156V16.9327C13.8912 17.1117 13.7234 17.2898 13.5565 17.2898Z" fill="white"/>
</svg>
